#tb 0: 1/1
#media_type 0: video
#codec_id 0: fits
#dimensions 0: 72x36
#sar 0: 0/1
0,          0,          0,        1,    23040, 0xff6b60c5
0,          1,          1,        1,    23040, 0x46c7ff1c
0,          2,          2,        1,    23040, 0x33cf272c
0,          3,          3,        1,    23040, 0xd0cab5ca
0,          4,          4,        1,    23040, 0x380c591b
